<svg width="118" height="60" viewBox="0 0 118 60" fill="none" xmlns="http://www.w3.org/2000/svg">
<path d="M60.5842 13.65C60.4519 13.9104 60.5199 14.176 60.706 14.3779C60.887 14.5741 61.1805 14.7161 61.5325 14.7778L61.5919 14.7882L61.5931 14.7874C61.9289 14.8365 62.2691 14.8064 62.5563 14.7148C62.8559 14.6193 63.1221 14.4483 63.2455 14.2038C64.24 12.2421 66.3135 10.5599 69.0405 9.36708C71.7649 8.17544 75.1267 7.47921 78.6737 7.47921C79.0404 7.47921 79.3799 7.3922 79.6327 7.24376C79.882 7.09739 80.0727 6.87338 80.0727 6.5958C80.0727 6.31822 79.882 6.09421 79.6327 5.94785C79.3799 5.79941 79.0404 5.7124 78.6737 5.7124C74.4006 5.7124 70.4646 6.54737 67.3051 7.95448C64.1479 9.36051 61.7531 11.344 60.5842 13.65ZM60.5842 13.65C60.5842 13.65 60.5842 13.65 60.5842 13.65L60.7182 13.718M60.5842 13.65C60.5842 13.6501 60.5842 13.6501 60.5841 13.6501L60.7182 13.718M60.7182 13.718C60.5211 14.1061 60.8975 14.514 61.5584 14.6297L60.7182 13.718Z" fill="#2D66F5" stroke="#F9FFF9" stroke-width="0.3"/>
<path d="M96.1555 42.5185H88.663C87.9735 42.5185 87.4142 42.1902 87.4142 41.7854C87.4142 41.3806 87.9735 41.0523 88.663 41.0523H96.1555C106.484 41.0523 114.887 36.1189 114.887 30.0556C114.887 23.9923 106.484 19.0589 96.1555 19.0589H95.9753C95.6131 19.0589 95.2688 18.9668 95.0316 18.806C94.7943 18.6453 94.6873 18.4321 94.739 18.2216C94.8505 17.765 94.9067 17.3063 94.9067 16.8596C94.9067 11.6048 87.6236 7.32912 78.6727 7.32912C75.1905 7.32912 71.8696 7.96797 69.0687 9.17707C68.4533 9.44256 67.5792 9.32474 67.2232 8.92728C59.291 0.0598119 38.5727 -1.131 27.8314 6.58293C23.3065 9.83269 21.5286 14.0601 22.9532 18.1803C23.1102 18.6353 22.5171 19.0595 21.7294 19.0595H21.229C10.901 19.0595 2.49764 23.9929 2.49764 30.0562C2.49764 36.1195 10.901 41.0528 21.229 41.0528H28.7215C29.411 41.0528 29.9703 41.3812 29.9703 41.786C29.9703 42.1907 29.411 42.5191 28.7215 42.5191H21.229C9.5236 42.5191 0 36.9281 0 30.0561C0 23.377 8.99636 17.9079 20.2488 17.6063C19.1918 13.3317 21.213 9.01994 25.8976 5.65503C37.3977 -2.60451 59.4369 -1.67872 68.7534 7.53126C71.7256 6.43735 75.1266 5.86348 78.6723 5.86348C89.5169 5.86348 98.1102 11.2823 97.3583 17.6131C108.507 17.9802 117.384 23.4204 117.384 30.0556C117.384 36.9281 107.86 42.5185 96.1549 42.5185L96.1555 42.5185Z" fill="#2D66F5"/>
<path d="M27.1551 41.3714C27.1551 46.4998 30.7074 51.1225 36.3836 54.4548C42.0635 57.7893 49.8955 59.8497 58.5247 59.8497C67.1541 59.8497 74.9861 57.7893 80.666 54.4548C86.3421 51.1224 89.8944 46.4997 89.8944 41.3714C89.8944 36.243 86.3421 31.6203 80.666 28.288C74.9861 24.9536 67.1541 22.8931 58.5247 22.8931C49.8954 22.8931 42.0633 24.9536 36.3835 28.2881C30.7073 31.6204 27.1551 36.2431 27.1551 41.3714ZM29.9537 41.3714C29.9537 36.7981 33.1238 32.6234 38.3013 29.5838C43.4753 26.5463 50.6284 24.6603 58.5247 24.6603C66.421 24.6603 73.5741 26.5463 78.7481 29.5838C83.9257 32.6234 87.0957 36.798 87.0957 41.3714C87.0957 45.9447 83.9257 50.1194 78.7481 53.159C73.5741 56.1965 66.421 58.0826 58.5247 58.0826C50.6285 58.0826 43.4754 56.1965 38.3014 53.1591C33.1238 50.1195 29.9537 45.9448 29.9537 41.3714Z" fill="#2D66F5" stroke="#F9FFF9" stroke-width="0.3"/>
<path d="M58.0309 48.7496C58.0309 48.9729 58.1841 49.1479 58.3729 49.2587C58.5652 49.3716 58.821 49.4366 59.0954 49.4366C59.3697 49.4366 59.6255 49.3717 59.8179 49.2588C60.0067 49.148 60.1599 48.9731 60.1599 48.7496V34.7947C60.1599 34.5714 60.0066 34.3964 59.8179 34.2856C59.6256 34.1727 59.3698 34.1077 59.0954 34.1077C58.821 34.1077 58.5652 34.1727 58.3729 34.2856C58.1841 34.3964 58.0309 34.5714 58.0309 34.7947V48.7496Z" fill="#2D66F5" stroke="#2D66F5" stroke-width="0.3"/>
<path d="M59.095 34.109C59.3488 34.109 59.6108 34.1654 59.8179 34.2869L67.1317 38.5807C67.3381 38.7019 67.4738 38.881 67.4738 39.0898C67.4738 39.2985 67.3381 39.4777 67.1317 39.5989C66.9248 39.7208 66.6624 39.7768 66.4092 39.7768L59.095 34.109ZM59.095 34.109C58.8413 34.109 58.5794 34.1654 58.3727 34.2869L59.095 34.109ZM65.6866 39.5989C65.8933 39.7203 66.1556 39.7768 66.4091 39.7768L58.3726 34.287L51.0589 38.5807C50.8524 38.7019 50.7168 38.881 50.7168 39.0898C50.7168 39.2985 50.8524 39.4777 51.0589 39.5989C51.2659 39.7205 51.5279 39.7769 51.7817 39.7769C52.0355 39.7769 52.2974 39.7205 52.5041 39.5989L59.0953 35.7294L65.6866 39.5989Z" fill="#2D66F5" stroke="#2D66F5" stroke-width="0.3"/>
</svg>
