<svg width="16" height="17" viewBox="0 0 16 17" fill="none" xmlns="http://www.w3.org/2000/svg">
<path d="M11.2693 16.4999V13.5551C11.2981 13.1923 11.2486 12.8275 11.1239 12.4851C10.9992 12.1426 10.8023 11.8304 10.5462 11.5691C12.9616 11.3028 15.5 10.3972 15.5 6.24257C15.4998 5.18018 15.0867 4.15854 14.3462 3.38909C14.6968 2.45962 14.672 1.43224 14.2769 0.520385C14.2769 0.520385 13.3692 0.254059 11.2693 1.64656C9.5062 1.17389 7.64774 1.17389 5.88468 1.64656C3.78469 0.254059 2.877 0.520385 2.877 0.520385C2.48191 1.43224 2.45712 2.45962 2.80777 3.38909C2.06172 4.16425 1.64818 5.19513 1.65394 6.2654C1.65394 10.3896 4.19238 11.2951 6.60775 11.5919C6.35467 11.8506 6.15949 12.1591 6.03491 12.4973C5.91033 12.8356 5.85915 13.196 5.88468 13.5551V16.4999M5.88468 14.2171C2.03855 15.3585 2.03855 12.3148 0.500096 11.9343L5.88468 14.2171Z" stroke="black" stroke-linecap="round" stroke-linejoin="round"/>
</svg>
