<svg width="17" height="15" viewBox="0 0 17 15" fill="none" xmlns="http://www.w3.org/2000/svg">
<path d="M16.2214 9.14691L8.48505 14.5L0.748677 9.14691C0.644962 9.07429 0.56803 8.9723 0.528887 8.85553C0.489744 8.73875 0.490396 8.61319 0.530751 8.49679L1.41698 5.88249L3.18945 0.688472C3.20664 0.64615 3.23401 0.608251 3.26935 0.577813C3.32691 0.527755 3.40206 0.5 3.48001 0.5C3.55797 0.5 3.63312 0.527755 3.69068 0.577813C3.728 0.612162 3.7555 0.655011 3.77058 0.702304L5.54305 5.88249H11.427L13.1995 0.688472C13.2167 0.64615 13.2441 0.608251 13.2794 0.577813C13.337 0.527755 13.4121 0.5 13.4901 0.5C13.568 0.5 13.6432 0.527755 13.7007 0.577813C13.7381 0.612162 13.7656 0.655011 13.7806 0.702304L15.5531 5.89632L16.4757 8.49679C16.5124 8.61678 16.5074 8.74483 16.4616 8.86195C16.4158 8.97906 16.3316 9.07899 16.2214 9.14691V9.14691Z" stroke="black" stroke-linecap="round" stroke-linejoin="round"/>
</svg>
